<svg width="18" height="18" viewBox="0 0 18 18" fill="none" xmlns="http://www.w3.org/2000/svg">
<path d="M12.9961 9.07549L12.9961 9.0754C13.006 8.9524 12.9911 8.82867 12.9523 8.71152C12.9136 8.59436 12.8518 8.48614 12.7707 8.39321L6.65109 1.37367C6.57352 1.2756 6.47688 1.19427 6.367 1.13459C6.25695 1.07482 6.13589 1.038 6.01119 1.0264C5.88648 1.01479 5.76072 1.02865 5.64152 1.06709C5.52232 1.10554 5.41217 1.16778 5.31774 1.25006C5.22332 1.33234 5.14658 1.43294 5.09219 1.54576C5.03779 1.65858 5.00688 1.78127 5.00131 1.90639C4.99574 2.03151 5.01563 2.15645 5.05979 2.27365C5.10387 2.39067 5.17122 2.49752 5.25776 2.58778L10.8456 9.00027L5.25776 15.4128C5.17122 15.503 5.10387 15.6099 5.05979 15.7269C5.01563 15.8441 4.99574 15.969 5.00131 16.0942C5.00688 16.2193 5.03779 16.342 5.09219 16.4548C5.14658 16.5676 5.22332 16.6682 5.31774 16.7505C5.41217 16.8328 5.52232 16.895 5.64152 16.9335C5.76072 16.9719 5.88648 16.9857 6.01119 16.9741C6.13589 16.9625 6.25694 16.9257 6.367 16.866C6.47689 16.8063 6.57352 16.7249 6.65108 16.6269L12.7707 9.60735L12.9961 9.07549ZM12.9961 9.07549C12.9797 9.27229 12.9007 9.45865 12.7707 9.60733L12.9961 9.07549Z" fill="white" stroke="white" stroke-width="0.05"/>
</svg>
