<svg width="22" height="22" viewBox="0 0 22 22" fill="none" xmlns="http://www.w3.org/2000/svg">
<path d="M6.10113 11.0931L6.10112 11.093C6.08897 10.9407 6.10741 10.7876 6.15534 10.6425C6.20327 10.4975 6.27973 10.3636 6.38021 10.2485L13.8595 1.66937C13.9554 1.54809 14.075 1.44752 14.2109 1.3737C14.3471 1.29971 14.497 1.25413 14.6513 1.23977C14.8057 1.2254 14.9614 1.24256 15.1089 1.29014C15.2565 1.33773 15.3928 1.41478 15.5097 1.51662L15.4802 1.55055L15.5097 1.51663C15.6266 1.61847 15.7216 1.74301 15.7889 1.88266C15.8562 2.0223 15.8945 2.17417 15.9014 2.32905C15.9083 2.48393 15.8837 2.63859 15.829 2.78367C15.7745 2.9284 15.6912 3.06058 15.5842 3.17224L8.76317 11L15.5842 18.8278C15.6912 18.9394 15.7745 19.0716 15.829 19.2163C15.8837 19.3614 15.9083 19.5161 15.9014 19.671C15.8945 19.8258 15.8562 19.9777 15.7889 20.1174C15.7216 20.257 15.6266 20.3815 15.5097 20.4834C15.3928 20.5852 15.2565 20.6623 15.1089 20.7099C14.9614 20.7575 14.8057 20.7746 14.6513 20.7602C14.497 20.7459 14.3471 20.7003 14.2109 20.6263C14.075 20.5525 13.9554 20.4519 13.8595 20.3306L6.38023 11.7515L6.10113 11.0931ZM6.10113 11.0931C6.1215 11.3367 6.21928 11.5674 6.38018 11.7514L6.10113 11.0931Z" fill="white" stroke="#F0F0F0" stroke-width="0.09"/>
</svg>
