<svg width="16" height="16" viewBox="0 0 16 16" fill="none" xmlns="http://www.w3.org/2000/svg">
<path d="M5.47198 5.28039L7.02398 3.72839V10.5764C7.02398 11.1204 7.45598 11.5524 7.99998 11.5524C8.54398 11.5524 8.97598 11.1204 8.97598 10.5764V3.71239L10.528 5.26439C10.72 5.45639 10.96 5.55239 11.216 5.55239C11.472 5.55239 11.712 5.45639 11.904 5.26439C12.288 4.88039 12.288 4.27239 11.904 3.88839L8.68798 0.688391C8.30398 0.304391 7.69598 0.304391 7.31198 0.688391L4.09598 3.90439C3.71198 4.28839 3.71198 4.89639 4.09598 5.28039C4.47998 5.66439 5.08798 5.66439 5.47198 5.28039Z" fill="#F6F6F6"/>
<path d="M13.7919 10.0488C13.2479 10.0488 12.8159 10.4808 12.8159 11.0248V13.6648H3.16794V11.0248C3.16794 10.4808 2.73594 10.0488 2.19194 10.0488C1.64794 10.0488 1.21594 10.4808 1.21594 11.0248V14.6408C1.21594 15.1848 1.64794 15.6168 2.19194 15.6168H13.7919C14.3359 15.6168 14.7679 15.1848 14.7679 14.6408V11.0248C14.7679 10.4808 14.3359 10.0488 13.7919 10.0488Z" fill="#F6F6F6"/>
</svg>
